<svg fill="#00AFBF" xmlns="http://www.w3.org/2000/svg" viewBox="0 0 164 164"><path fill-rule="evenodd" clip-rule="evenodd" d="M75.686 12.736c12.29 12.458-1.889 29.462 7.9 37.999-3.257 2.37-5.973 4.816-9.231 7.185-8.613-2.934-21.6 1.719-27.403 14.567-6.1 13.501.247 33.509 15.265 34.53-5.2-16.854.076-11.768 14.512-16.789 7.833-2.726 10.551-7.013 11.467-14.215 15.355-10.04 29.102-17.445 44.225-27.772 3.999 31.578-20.819 91.788-64.143 107.417C4.622 178.619-3.866 109.012 1.24 74.902c4.811-32.148 43.626-93.41 74.446-62.166zm26.925 49.868a212.524 212.524 0 0 0-5.117-7.609 216.039 216.039 0 0 0-4.954-6.741c-5.461 4.018-10.493 7.975-14.931 11.709a96.935 96.935 0 0 1 8.984 12.748c5.002-2.921 10.409-6.324 16.018-10.107zm-22.664 6.111c-4.853-7.53-13.308-8.907-20.287-4.234-17.301 11.583-10.386 33.383-1.562 38.331-4.479-6.013-1.511-12.151 3.249-13.552 7.104-2.089 30.319-2.364 18.6-20.545zm48.081-21.911c54.912-38.672 42.876-55.872-12.093-17.157-7.709 5.43-14.706 10.911-20.603 16.034a136.387 136.387 0 0 1 10.67 15.137c6.806-3.833 14.317-8.583 22.026-14.014zM94.699 114.38c5.997 0 10.859-4.861 10.859-10.86 0-5.996-4.862-10.858-10.859-10.858-5.998 0-10.859 4.862-10.859 10.858 0 5.999 4.861 10.86 10.859 10.86zm-69.74-22.307c5.999 0 10.86-4.862 10.86-10.86 0-5.998-4.862-10.859-10.86-10.859-5.997 0-10.859 4.861-10.859 10.859.001 5.998 4.862 10.86 10.859 10.86zm.566 30.98c5.997 0 10.859-4.861 10.859-10.859 0-5.997-4.862-10.859-10.859-10.859-5.998 0-10.859 4.862-10.859 10.859s4.862 10.859 10.859 10.859zm17.887 25.033c5.998 0 10.86-4.862 10.86-10.859 0-5.998-4.862-10.859-10.86-10.859s-10.859 4.861-10.859 10.859c0 5.997 4.861 10.859 10.859 10.859zm30.039-11.941c5.998 0 10.859-4.862 10.859-10.859 0-5.998-4.862-10.859-10.859-10.859s-10.86 4.861-10.86 10.859c0 5.996 4.863 10.859 10.86 10.859zM50.04 54.324c8.996 0 16.289-7.292 16.289-16.289 0-8.996-7.293-16.289-16.289-16.289-8.995 0-16.289 7.293-16.289 16.289 0 8.996 7.294 16.289 16.289 16.289z"/></svg>