<svg fill="#00AFBF" xmlns="http://www.w3.org/2000/svg" viewBox="0 0 100 100"><path d="M50 0C22.4 0 0 22.4 0 50s22.4 50 50 50 50-22.4 50-50S77.6 0 50 0zM35.9 60.5c1.4 1.6 1.2 4.1-.4 5.5-1.6 1.4-4.1 1.2-5.5-.4L18.7 52.5c-1.3-1.5-1.3-3.6 0-5.1l11.2-13.1c.7-.9 1.8-1.4 3-1.4.9 0 1.8.3 2.5.9.8.7 1.3 1.6 1.3 2.7.1 1-.3 2-.9 2.8l-9 10.7 9.1 10.5zm23.3-22L48 64.6c-.8 1.9-3.2 2.9-5.1 2-1-.4-1.7-1.2-2.1-2.1-.4-1-.4-2 0-3L52 35.4c.6-1.4 2-2.4 3.6-2.4.5 0 1 .1 1.5.3 1 .4 1.7 1.2 2.1 2.1.4 1.1.4 2.1 0 3.1zm22.1 14L70.1 65.6c-1.4 1.6-3.9 1.8-5.5.4s-1.8-3.9-.4-5.5l9-10.5-9.1-10.5c-.7-.8-1-1.8-.9-2.8s.6-2 1.3-2.7c.7-.6 1.6-.9 2.5-.9 1.1 0 2.2.5 3 1.4l11.3 13.1c1.3 1.3 1.3 3.5 0 4.9z"/></svg>