<svg fill="#00AFBF" xmlns="http://www.w3.org/2000/svg" viewBox="0 0 100 100"><path d="M85.4 69.1c-4.4-1.4-9.8-2.5-16-3.2l4-4c12.9-12.9 12.9-34 0-46.9C60.5 2 39.5 2 26.6 15c-6.3 6.3-9.7 14.6-9.7 23.4 0 8.9 3.4 17.2 9.7 23.4l4 4c-6.1.7-11.6 1.8-16 3.2-3 1-12.2 3.9-12.2 10.6 0 5.2 5.2 9 15.8 11.7 8.5 2.2 19.8 3.3 31.8 3.3s23.2-1.2 31.8-3.3c10.6-2.7 15.8-6.5 15.8-11.7-.1-6.6-9.2-9.5-12.2-10.5zM24.8 38.4c0-6.7 2.6-13 7.4-17.8 4.9-4.9 11.3-7.4 17.8-7.4 6.4 0 12.9 2.5 17.8 7.4 9.8 9.8 9.8 25.8 0 35.6L50 74 32.2 56.2c-4.7-4.8-7.4-11.1-7.4-17.8zM50 86.7c-23.9 0-36.9-4.6-39.3-7 1.8-1.8 10.1-5.3 27.2-6.5L50 85.3l12.1-12.1c17.1 1.3 25.4 4.7 27.2 6.5-2.4 2.4-15.4 7-39.3 7z"/><path d="M50 53.1c4.5 0 8.7-1.7 11.8-4.9 3.2-3.2 4.9-7.3 4.9-11.8s-1.7-8.7-4.9-11.8c-3.2-3.2-7.3-4.9-11.8-4.9-4.5 0-8.7 1.7-11.8 4.9-3.2 3.2-4.9 7.3-4.9 11.8s1.7 8.7 4.9 11.8c3.1 3.2 7.3 4.9 11.8 4.9zm-6.2-22.9c1.6-1.6 3.8-2.5 6.2-2.5 2.3 0 4.5.9 6.2 2.5 1.6 1.6 2.5 3.8 2.5 6.2s-.9 4.5-2.5 6.2c-3.4 3.4-8.9 3.4-12.3 0-1.6-1.6-2.5-3.8-2.5-6.2s.8-4.5 2.4-6.2z"/></svg>