<svg fill="#00AFBF" xmlns="http://www.w3.org/2000/svg" viewBox="0 0 100 100"><path d="M96.4 81.2H82.7c-.7 0-1.3.6-1.3 1.3v13.7c0 .7.6 1.3 1.3 1.3h13.7c.7 0 1.3-.6 1.3-1.3V82.5c0-.7-.6-1.3-1.3-1.3z"/><circle cx="50.9" cy="89.3" r="8.1"/><path d="M2.1 94.1c-.4.7-.5 1.5-.1 2.2.4.7 1.1 1.1 1.9 1.1h15.2c.8 0 1.5-.4 1.9-1.1.2-.3.3-.7.3-1.1 0-.4-.1-.8-.3-1.2l-7.6-11.9c-.4-.6-1.1-1-1.8-1s-1.4.4-1.8 1l-7.7 12zM96 66c.2-.3.2-.7 0-1.1-.2-.3-.5-.6-.9-.6h-2.9V48.2c0-1.5-1.2-2.7-2.7-2.7H53.3V32.3h16.3c2.2 0 4-1.8 4-4V6c0-2.2-1.8-4-4-4H31.8c-2.2 0-4 1.8-4 4v22.3c0 2.2 1.8 4 4 4h16.1v13.2H11.6c-1.5 0-2.7 1.2-2.7 2.7v16.2H6c-.4 0-.7.2-.9.6-.1 0-.2.2-.2.4s.1.4.2.6l5.6 8.7c.4.6 1.4.6 1.8 0l5.6-8.7c.2-.3.2-.7 0-1.1-.2-.3-.5-.6-.9-.6h-2.9V50.8h33.6v13.5h-2.5c-.4 0-.7.2-.9.6-.1.2-.1.3-.1.5s.1.4.2.6l5.6 8.7c.4.6 1.4.6 1.8 0l5.6-8.7c.2-.3.2-.7 0-1.1-.2-.3-.5-.6-.9-.6h-3.4V50.8h33.6v13.5H84c-.4 0-.7.2-.9.6-.1.2-.1.3-.1.5s.1.4.2.6l5.6 8.7c.4.6 1.4.6 1.8 0L96 66zM48.3 24.1l-7.4-7.4 3.2-3.2 4.2 4.2L57 8.9l3.2 3.2-11.9 12z"/></svg>