<svg fill="#00AFBF" xmlns="http://www.w3.org/2000/svg" data-name="Layer 1" viewBox="0 0 100 100"><title>All4</title><path d="M41.2 5.83h17.6a1.53 1.53 0 1 1 0 3.06H41.2a1.53 1.53 0 1 1 0-3.06zm12.3 89.38h-7a4.12 4.12 0 1 1 0-8.24h7a4.12 4.12 0 1 1 0 8.24zM72 85.19H28v-73h44v73z"/><path d="M69.92 0H30.08a7.67 7.67 0 0 0-7.66 7.66v84.68a7.67 7.67 0 0 0 7.66 7.66h39.84a7.67 7.67 0 0 0 7.66-7.66V7.66A7.67 7.67 0 0 0 69.92 0zm4.6 92.34a4.6 4.6 0 0 1-4.6 4.6H30.08a4.6 4.6 0 0 1-4.6-4.6V7.66a4.6 4.6 0 0 1 4.6-4.6h39.84a4.6 4.6 0 0 1 4.6 4.6v84.68z"/><path d="M28.04 12.15h43.92v73.04H28.04zM41.2 8.9h17.6a1.53 1.53 0 1 0 0-3.06H41.2a1.53 1.53 0 1 0 0 3.06zM53.5 87h-7a4.12 4.12 0 1 0 0 8.24h7a4.12 4.12 0 1 0 0-8.24z"/></svg>