<svg fill="#00AFBF" xmlns="http://www.w3.org/2000/svg" viewBox="0 0 100 100"><title>22</title><path d="M57.7 31.175c0-1.01.067-2.004.194-2.98H3.906c-.369 0-.724.055-1.063.15L39.955 58.24a2.071 2.071 0 0 0 2.583 0l18.614-14.989A22.772 22.772 0 0 1 57.7 31.175m24.873 53.33c.052-.254.08-.516.08-.785V54.04c-.645.054-1.296.083-1.954.083-6.842 0-12.994-2.997-17.211-7.744l-14.132 11.38 33.217 26.747zM46.247 60.262l-1.256 1.011a5.964 5.964 0 0 1-3.745 1.31c-1.33 0-2.66-.436-3.745-1.31l-1.172-.944L2.685 87.42c.385.127.795.198 1.221.198h74.84c.43 0 .84-.072 1.227-.2L46.246 60.262zM33.22 57.824L.118 31.16c-.074.3-.118.61-.118.933V83.72c0 .27.028.534.08.789l33.14-26.685zM80.7 26.387a3.68 3.68 0 0 0-3.68 3.672v6.04h7.36v-6.04a3.68 3.68 0 0 0-3.68-3.672m7.855 13.61H72.845a1.95 1.95 0 0 1-1.953-1.95 1.95 1.95 0 0 1 1.953-1.948h.269v-6.04c0-3.5 2.393-6.452 5.633-7.314v-1.143a1.95 1.95 0 0 1 1.953-1.949 1.95 1.95 0 0 1 1.953 1.95v1.142c3.24.862 5.633 3.814 5.633 7.314v6.04h.27a1.95 1.95 0 0 1 1.953 1.949 1.95 1.95 0 0 1-1.954 1.948M80.7 12c-10.597 0-19.218 8.602-19.218 19.175S70.103 50.349 80.7 50.349s19.218-8.601 19.218-19.174C99.918 20.602 91.297 12 80.7 12" fill="#00AFBF" fill-rule="evenodd"/></svg>