<svg fill="#00AFBF" xmlns="http://www.w3.org/2000/svg" viewBox="0 0 512 512"><path d="M78.2 383c-14 0-25.4 11.4-25.4 25.4v76.2c0 14 11.4 25.4 25.4 25.4 14 0 25.4-11.4 25.4-25.4v-76.2c0-14-11.4-25.4-25.4-25.4zM179.8 306.8c-14 0-25.4 11.4-25.4 25.4v152.4c0 14 11.4 25.4 25.4 25.4 14 0 25.4-11.4 25.4-25.4V332.2c0-14-11.4-25.4-25.4-25.4zM281.4 230.6c-14 0-25.4 11.4-25.4 25.4v228.6c0 14 11.4 25.4 25.4 25.4 14 0 25.4-11.4 25.4-25.4V256c0-14-11.4-25.4-25.4-25.4zM383 154.4c-14 0-25.4 11.4-25.4 25.4v304.8c0 14 11.4 25.4 25.4 25.4 14 0 25.4-11.4 25.4-25.4V179.8c0-14-11.4-25.4-25.4-25.4zM484.6 78.2c-14 0-25.4 11.4-25.4 25.4v381c0 14 11.4 25.4 25.4 25.4 14 0 25.4-11.4 25.4-25.4v-381c0-14-11.4-25.4-25.4-25.4zM129 2C58.9 2 2 58.9 2 129s56.9 127 127 127 127-56.9 127-127S199.1 2 129 2zm68.8 159.8c9.9 9.9 9.9 26 0 35.9-5 5-11.5 7.4-18 7.4s-13-2.5-18-7.4L129 164.9l-32.8 32.8c-5 5-11.5 7.4-18 7.4s-13-2.5-18-7.4c-9.9-9.9-9.9-26 0-35.9L93.1 129 60.2 96.2c-9.9-9.9-9.9-26 0-35.9s26-9.9 35.9 0L129 93.1l32.8-32.8c9.9-9.9 26-9.9 35.9 0 9.9 9.9 9.9 26 0 35.9L164.9 129l32.9 32.8z"/></svg>