<svg fill="#00AFBF" xmlns="http://www.w3.org/2000/svg" viewBox="0 0 100 100"><path d="M53.2 43.7c2.9-1.7 4.9-5.1 4.9-9 0-4.3-2.4-8.1-5.9-9.7-1.4-6.2-6.4-10.7-12.4-10.7-2.9 0-5.6 1.1-7.7 2.9-1.4-1.1-3.2-1.7-5-1.7-4.6 0-8.4 3.7-9.1 8.6-5.4 0-9.8 4.7-9.8 10.4 0 3.9 2.1 7.3 5 9.1h40zM86 67.1c-1.4-6.2-6.4-10.7-12.4-10.7-2.9 0-5.6 1.1-7.7 2.9-1.4-1.1-3.2-1.7-5-1.7-4.6 0-8.4 3.7-9.1 8.6-5.4 0-9.8 4.7-9.8 10.4 0 3.9 2.1 7.3 5 9.1h40c2.9-1.7 4.9-5.1 4.9-9 0-4.3-2.4-8-5.9-9.6zM80.3 40.7h-2.6c-1 0-1.6.7-1 1.7l1.4 2.8c.4 1 1.4 2.5 1.9 3.5l1.4 2.8c.4.7 1.3.7 1.9-.1l1.6-2.6c.6-.9 1.4-2.5 2-3.3l1.4-2.6c.6-.9.1-1.7-.9-1.7h-2.5c-.3-9.4-7.8-16.6-16.9-16.6-.4 0-.8 0-1.2.1v4.9H68c6.6-.3 11.8 4.8 12.3 11.1zM19.7 64.8h2.6c1 0 1.6-.7 1-1.7l-1.4-2.8c-.4-1-1.4-2.5-1.9-3.5L18.6 54c-.4-.7-1.3-.7-1.9.1l-1.6 2.6c-.6.9-1.4 2.5-2 3.3l-1.4 2.6c-.6.9-.1 1.7.9 1.7h2.5c.3 9.4 7.8 16.6 16.9 16.6.4 0 .8 0 1.2-.1v-4.9H32c-6.6.3-11.8-4.7-12.3-11.1z"/></svg>