<svg fill="#00AFBF" xmlns="http://www.w3.org/2000/svg" viewBox="0 0 100 100"><path d="M10.873 27.02L37.853.038V27.02z"/><path d="M55.016 61.065l11.151 10.821a4.988 4.988 0 0 0 3.49 1.415 5 5 0 0 0 3.603-1.525 5.014 5.014 0 0 0-.107-7.092l-19.655-19.07a5.017 5.017 0 0 0-6.988 0l-19.661 19.07a5.02 5.02 0 0 0-.106 7.092 5.02 5.02 0 0 0 7.095.11l11.147-10.818v38.894H15.782a4.913 4.913 0 0 1-4.909-4.909V37.052h32.108a4.907 4.907 0 0 0 4.906-4.906V.038h36.329a4.909 4.909 0 0 1 4.91 4.908v90.106a4.911 4.911 0 0 1-4.91 4.909h-29.2V61.065z"/></svg>